<svg 
          width="20" 
          height="20" fill="none" 
          xmlns="http://www.w3.org/2000/svg">
          <path d="M 3.8500001430511475 15.100000381469727 C 4.700000166893005 14.45000034570694 5.650000214576721 13.9375 6.700000286102295 13.5625 C 7.750000357627869 13.1875 8.850000023841858 13 10 13 C 11.149999976158142 13 12.25000011920929 13.1875 13.300000190734863 13.5625 C 14.350000262260437 13.9375 15.299999594688416 14.45000034570694 16.149999618530273 15.100000381469727 C 16.733332991600037 14.41666704416275 17.18750074505806 13.641667306423187 17.512500762939453 12.77500057220459 C 17.837500780820847 11.908333837985992 18 10.98333328962326 18 10 C 18 7.7833333015441895 17.220833659172058 5.895833373069763 15.662500381469727 4.337500095367432 C 14.104167103767395 2.7791668176651 12.21666669845581 2 10 2 C 7.7833333015441895 2 5.895833373069763 2.7791668176651 4.337500095367432 4.337500095367432 C 2.7791668176651 5.895833373069763 2 7.7833333015441895 2 10 C 2 10.98333328962326 2.1624999344348907 11.908333837985992 2.487499952316284 12.77500057220459 C 2.8124999701976776 13.641667306423187 3.2666667699813843 14.41666704416275 3.8500001430511475 15.100000381469727 Z M 10 11 C 9.01666671037674 11 8.187500298023224 10.662500202655792 7.512500286102295 9.987500190734863 C 6.837500274181366 9.312500178813934 6.5 8.48333328962326 6.5 7.5 C 6.5 6.5166667103767395 6.837500274181366 5.687500298023224 7.512500286102295 5.012500286102295 C 8.187500298023224 4.337500274181366 9.01666671037674 4 10 4 C 10.98333328962326 4 11.812500178813934 4.337500274181366 12.487500190734863 5.012500286102295 C 13.162500202655792 5.687500298023224 13.5 6.5166667103767395 13.5 7.5 C 13.5 8.48333328962326 13.162500202655792 9.312500178813934 12.487500190734863 9.987500190734863 C 11.812500178813934 10.662500202655792 10.98333328962326 11 10 11 Z M 10 20 C 8.616666674613953 20 7.316666603088379 19.73749965429306 6.099999904632568 19.212499618530273 C 4.883333206176758 18.687499582767487 3.824999988079071 17.97500079870224 2.924999952316284 17.075000762939453 C 2.0249999165534973 16.175000727176666 1.3125000596046448 15.1166672706604 0.7875000238418579 13.90000057220459 C 0.26249998807907104 12.68333387374878 0 11.383333325386047 0 10 C 0 8.616666674613953 0.26249998807907104 7.316666603088379 0.7875000238418579 6.099999904632568 C 1.3125000596046448 4.883333206176758 2.0249999165534973 3.824999988079071 2.924999952316284 2.924999952316284 C 3.824999988079071 2.0249999165534973 4.883333206176758 1.3125000596046448 6.099999904632568 0.7875000238418579 C 7.316666603088379 0.26249998807907104 8.616666674613953 0 10 0 C 11.383333325386047 0 12.68333387374878 0.26249998807907104 13.90000057220459 0.7875000238418579 C 15.1166672706604 1.3125000596046448 16.175000727176666 2.0249999165534973 17.075000762939453 2.924999952316284 C 17.97500079870224 3.824999988079071 18.687499582767487 4.883333206176758 19.212499618530273 6.099999904632568 C 19.73749965429306 7.316666603088379 20 8.616666674613953 20 10 C 20 11.383333325386047 19.73749965429306 12.68333387374878 19.212499618530273 13.90000057220459 C 18.687499582767487 15.1166672706604 17.97500079870224 16.175000727176666 17.075000762939453 17.075000762939453 C 16.175000727176666 17.97500079870224 15.1166672706604 18.687499582767487 13.90000057220459 19.212499618530273 C 12.68333387374878 19.73749965429306 11.383333325386047 20 10 20 Z M 10 18 C 10.883333325386047 18 11.716666638851166 17.870834469795227 12.5 17.61250114440918 C 13.283333361148834 17.354167819023132 14.000000536441803 16.983333349227905 14.65000057220459 16.5 C 14.000000536441803 16.016666650772095 13.283333361148834 15.645833134651184 12.5 15.387499809265137 C 11.716666638851166 15.12916648387909 10.883333325386047 15 10 15 C 9.116666674613953 15 8.283333361148834 15.12916648387909 7.5 15.387499809265137 C 6.716666638851166 15.645833134651184 5.999999940395355 16.016666650772095 5.349999904632568 16.5 C 5.999999940395355 16.983333349227905 6.716666638851166 17.354167819023132 7.5 17.61250114440918 C 8.283333361148834 17.870834469795227 9.116666674613953 18 10 18 Z M 10 9 C 10.433333367109299 9 10.791666477918625 8.858333140611649 11.074999809265137 8.574999809265137 C 11.358333140611649 8.291666477918625 11.5 7.933333367109299 11.5 7.5 C 11.5 7.066666632890701 11.358333140611649 6.708333522081375 11.074999809265137 6.425000190734863 C 10.791666477918625 6.141666859388351 10.433333367109299 6 10 6 C 9.566666632890701 6 9.208333522081375 6.141666859388351 8.925000190734863 6.425000190734863 C 8.641666859388351 6.708333522081375 8.5 7.066666632890701 8.5 7.5 C 8.5 7.933333367109299 8.641666859388351 8.291666477918625 8.925000190734863 8.574999809265137 C 9.208333522081375 8.858333140611649 9.566666632890701 9 10 9 Z" fill="rgb(65.0000037252903,105.00000134110451,225.00000178813934)"/>
        </svg>