<svg 
          width="22" 
          height="18" fill="none" 
          xmlns="http://www.w3.org/2000/svg">
          <path d="M 0 18 L 0 13 L 2 13 L 2 16 L 5 16 L 5 18 L 0 18 Z M 17 18 L 17 16 L 20 16 L 20 13 L 22 13 L 22 18 L 17 18 Z M 3 15 L 3 3 L 5 3 L 5 15 L 3 15 Z M 6 15 L 6 3 L 7 3 L 7 15 L 6 15 Z M 9 15 L 9 3 L 11 3 L 11 15 L 9 15 Z M 12 15 L 12 3 L 15 3 L 15 15 L 12 15 Z M 16 15 L 16 3 L 17 3 L 17 15 L 16 15 Z M 18 15 L 18 3 L 19 3 L 19 15 L 18 15 Z M 0 5 L 0 0 L 5 0 L 5 2 L 2 2 L 2 5 L 0 5 Z M 20 5 L 20 2 L 17 2 L 17 0 L 22 0 L 22 5 L 20 5 Z" fill="rgb(0,0,0)"/>
        </svg>