<svg 
          width="20" 
          height="20" fill="none" 
          xmlns="http://www.w3.org/2000/svg">
          <path d="M 4 12 L 12 12 L 12 10 L 4 10 L 4 12 Z M 4 9 L 16 9 L 16 7 L 4 7 L 4 9 Z M 4 6 L 16 6 L 16 4 L 4 4 L 4 6 Z M 0 20 L 0 2 C 0 1.449999988079071 0.19583335518836975 0.979166716337204 0.5875000357627869 0.5875000357627869 C 0.979166716337204 0.19583335518836975 1.449999988079071 0 2 0 L 18 0 C 18.55000001192093 0 19.02083370089531 0.19583335518836975 19.412500381469727 0.5875000357627869 C 19.804167062044144 0.979166716337204 20 1.449999988079071 20 2 L 20 14 C 20 14.550000011920929 19.804167062044144 15.02083370089531 19.412500381469727 15.412500381469727 C 19.02083370089531 15.804167062044144 18.55000001192093 16 18 16 L 4 16 L 0 20 Z M 3.1500000953674316 14 L 18 14 L 18 2 L 2 2 L 2 15.125 L 3.1500000953674316 14 ZM 2 2 L 2 14" fill="rgb(0,0,0)"/>
        </svg>