<svg 
          width="18.91402816772461" 
          height="16" fill="none" 
          xmlns="http://www.w3.org/2000/svg">
          <path d="M 18.91402816772461 2 L 18.91402816772461 14 C 18.91402816772461 14.550000011920929 18.728828682491343 15.02083370089531 18.358428951054158 15.412500381469727 C 17.988029219616973 15.804167062044144 17.542761136838216 16 17.02262535095215 16 L 1.891402816772461 16 C 1.3712670308863948 16 0.9259993426850144 15.804167062044144 0.5555996112478283 15.412500381469727 C 0.18519987981064218 15.02083370089531 0 14.550000011920929 0 14 L 0 2 C 0 1.449999988079071 0.18519987981064218 0.979166716337204 0.5555996112478283 0.5875000357627869 C 0.9259993426850144 0.19583335518836975 1.3712670308863948 0 1.891402816772461 0 L 17.02262535095215 0 C 17.542761136838216 0 17.988029219616973 0.19583335518836975 18.358428951054158 0.5875000357627869 C 18.728828682491343 0.979166716337204 18.91402816772461 1.449999988079071 18.91402816772461 2 Z M 1.891402816772461 4 L 17.02262535095215 4 L 17.02262535095215 2 L 1.891402816772461 2 L 1.891402816772461 4 Z M 1.891402816772461 8 L 1.891402816772461 14 L 17.02262535095215 14 L 17.02262535095215 8 L 1.891402816772461 8 ZM 1.891402816772461 2 L 1.891402816772461 14" fill="rgb(28.000000230968,27.000000290572643,31.000000052154064)"/>
        </svg>