<svg 
          width="15.13122272491455" 
          height="21" fill="none" 
          xmlns="http://www.w3.org/2000/svg">
          <path d="M 1.8914028406143188 21 C 1.3712670481717417 21 0.9259993543575913 20.804167062044144 0.5555996182513745 20.412500381469727 C 0.1851998821451577 20.02083370089531 0 19.55000001192093 0 19 L 0 9 C 0 8.449999988079071 0.1851998821451577 7.979166775941849 0.5555996182513745 7.587500095367432 C 0.9259993543575913 7.1958334147930145 1.3712670481717417 7 1.8914028406143188 7 L 2.8371042609214783 7 L 2.8371042609214783 5 C 2.8371042609214783 3.6166666746139526 3.298133770963055 2.4375 4.2201926783098145 1.462499976158142 C 5.142251585656574 0.4874999523162842 6.2573910718814645 0 7.565611362457275 0 C 8.873831653033086 0 9.988971590203555 0.4874999523162842 10.911030497550314 1.462499976158142 C 11.833089404897073 2.4375 12.294118463993073 3.6166666746139526 12.294118463993073 5 L 12.294118463993073 7 L 13.239819884300232 7 C 13.759955676742809 7 14.20522376513434 7.1958334147930145 14.575623501240557 7.587500095367432 C 14.946023237346774 7.979166775941849 15.13122272491455 8.449999988079071 15.13122272491455 9 L 15.13122272491455 19 C 15.13122272491455 19.55000001192093 14.946023237346774 20.02083370089531 14.575623501240557 20.412500381469727 C 14.20522376513434 20.804167062044144 13.759955676742809 21 13.239819884300232 21 L 1.8914028406143188 21 Z M 1.8914028406143188 19 L 13.239819884300232 19 L 13.239819884300232 9 L 1.8914028406143188 9 L 1.8914028406143188 19 Z M 7.565611362457275 16 C 8.085747154899853 16 8.531015243291383 15.804167062044144 8.9014149793976 15.412500381469727 C 9.271814715503817 15.02083370089531 9.457014203071594 14.550000011920929 9.457014203071594 14 C 9.457014203071594 13.449999988079071 9.271814715503817 12.979167252779007 8.9014149793976 12.58750057220459 C 8.531015243291383 12.195833891630173 8.085747154899853 12 7.565611362457275 12 C 7.045475570014698 12 6.600207932568745 12.195833891630173 6.229808196462528 12.58750057220459 C 5.8594084603563115 12.979167252779007 5.6742085218429565 13.449999988079071 5.6742085218429565 14 C 5.6742085218429565 14.550000011920929 5.8594084603563115 15.02083370089531 6.229808196462528 15.412500381469727 C 6.600207932568745 15.804167062044144 7.045475570014698 16 7.565611362457275 16 Z M 4.728507101535797 7 L 10.402715623378754 7 L 10.402715623378754 5 C 10.402715623378754 4.166666686534882 10.12688608003463 3.458333373069763 9.57522688060999 2.875 C 9.023567681185348 2.291666626930237 8.35369586059051 2 7.565611362457275 2 C 6.777526864324042 2 6.107655043729203 2.291666626930237 5.555995844304562 2.875 C 5.0043366448799205 3.458333373069763 4.728507101535797 4.166666686534882 4.728507101535797 5 L 4.728507101535797 7 Z" fill="rgb(28.000000230968,27.000000290572643,31.000000052154064)"/>
        </svg>