<svg 
          width="15.13122272491455" 
          height="20" fill="none" 
          xmlns="http://www.w3.org/2000/svg">
          <path d="M 0 17 L 0 15 L 1.8914028406143188 15 L 1.8914028406143188 8 C 1.8914028406143188 6.616666674613953 2.2854451178650343 5.387500047683716 3.073529615998268 4.3125 C 3.861614114131502 3.237499952316284 4.8861239673415255 2.5333333909511566 6.147059231996536 2.200000047683716 L 6.147059231996536 1.5 C 6.147059231996536 1.0833333432674408 6.284974003668598 0.7291666865348816 6.5608036033809185 0.4375 C 6.836633203093239 0.1458333134651184 7.1715691133906585 0 7.565611362457275 0 C 7.959653611523892 0 8.294589521821312 0.1458333134651184 8.570419121533632 0.4375 C 8.846248721245953 0.7291666865348816 8.984163492918015 1.0833333432674408 8.984163492918015 1.5 L 8.984163492918015 2.200000047683716 C 10.245098757573025 2.5333333909511566 11.269608610783049 3.237499952316284 12.057693108916283 4.3125 C 12.845777607049516 5.387500047683716 13.239819884300232 6.616666674613953 13.239819884300232 8 L 13.239819884300232 15 L 15.13122272491455 15 L 15.13122272491455 17 L 0 17 Z M 7.565611362457275 20 C 7.045475570014698 20 6.600207932568745 19.804167062044144 6.229808196462528 19.412500381469727 C 5.8594084603563115 19.02083370089531 5.6742085218429565 18.55000001192093 5.6742085218429565 18 L 9.457014203071594 18 C 9.457014203071594 18.55000001192093 9.271814715503817 19.02083370089531 8.9014149793976 19.412500381469727 C 8.531015243291383 19.804167062044144 8.085747154899853 20 7.565611362457275 20 Z M 3.7828056812286377 15 L 11.348417043685913 15 L 11.348417043685913 8 C 11.348417043685913 6.899999976158142 10.978017166659203 5.9583335518836975 10.23721769444677 5.175000190734863 C 9.496418222234336 4.391666829586029 8.60588294734243 4 7.565611362457275 4 C 6.525339777572121 4 5.634804502680215 4.391666829586029 4.894005030467781 5.175000190734863 C 4.1532055582553475 5.9583335518836975 3.7828056812286377 6.899999976158142 3.7828056812286377 8 L 3.7828056812286377 15 Z" fill="rgb(28.000000230968,27.000000290572643,31.000000052154064)"/>
        </svg>