<svg 
          width="15.13122272491455" 
          height="16" fill="none" 
          xmlns="http://www.w3.org/2000/svg">
          <path d="M 7.565611362457275 8 C 6.525339777572121 8 5.634804502680215 7.608333647251129 4.894005030467781 6.825000286102295 C 4.1532055582553475 6.041666924953461 3.7828056812286377 5.100000023841858 3.7828056812286377 4 C 3.7828056812286377 2.899999976158142 4.1532055582553475 1.958333432674408 4.894005030467781 1.1750000715255737 C 5.634804502680215 0.3916667103767395 6.525339777572121 0 7.565611362457275 0 C 8.60588294734243 0 9.496418222234336 0.3916667103767395 10.23721769444677 1.1750000715255737 C 10.978017166659203 1.958333432674408 11.348417043685913 2.899999976158142 11.348417043685913 4 C 11.348417043685913 5.100000023841858 10.978017166659203 6.041666924953461 10.23721769444677 6.825000286102295 C 9.496418222234336 7.608333647251129 8.60588294734243 8 7.565611362457275 8 Z M 0 16 L 0 13.199999809265137 C 0 12.633333146572113 0.13791477167206168 12.112499803304672 0.41374437138438225 11.637499809265137 C 0.6895739710967028 11.162499815225601 1.0560332601920877 10.800000190734863 1.513122295038734 10.550000190734863 C 2.49034706595976 10.033333539962769 3.48333351218772 9.645833134651184 4.492081746459007 9.387499809265137 C 5.500829980730295 9.12916648387909 6.525339777572121 9 7.565611362457275 9 C 8.60588294734243 9 9.630392744184256 9.12916648387909 10.639140978455544 9.387499809265137 C 11.647889212726831 9.645833134651184 12.640876222636763 10.033333539962769 13.618100993557789 10.550000190734863 C 14.075190028404435 10.800000190734863 14.441648753817848 11.162499815225601 14.717478353530169 11.637499809265137 C 14.993307953242489 12.112499803304672 15.13122272491455 12.633333146572113 15.13122272491455 13.199999809265137 L 15.13122272491455 16 L 0 16 Z M 1.8914028406143188 14 L 13.239819884300232 14 L 13.239819884300232 13.199999809265137 C 13.239819884300232 13.01666647195816 13.196475418126658 12.849999815225601 13.109786119386229 12.699999809265137 C 13.023096820645799 12.549999803304672 12.908824392829546 12.433333717286587 12.766969174146652 12.350000381469727 C 11.91583786204929 11.900000363588333 11.056826332348631 11.562500581145287 10.189933344944336 11.33750057220459 C 9.323040357540041 11.112500563263893 8.448266025168504 11 7.565611362457275 11 C 6.682956699746047 11 5.808182818320088 11.112500563263893 4.941289830915792 11.33750057220459 C 4.074396843511497 11.562500581145287 3.2153848628652604 11.900000363588333 2.3642535507678986 12.350000381469727 C 2.222398332085005 12.433333717286587 2.1081261297415406 12.549999803304672 2.021436831001111 12.699999809265137 C 1.9347475322606815 12.849999815225601 1.8914028406143188 13.01666647195816 1.8914028406143188 13.199999809265137 L 1.8914028406143188 14 Z M 7.565611362457275 6 C 8.085747154899853 6 8.531015243291383 5.8041665852069855 8.9014149793976 5.412499904632568 C 9.271814715503817 5.020833224058151 9.457014203071594 4.550000011920929 9.457014203071594 4 C 9.457014203071594 3.449999988079071 9.271814715503817 2.9791667759418488 8.9014149793976 2.5875000953674316 C 8.531015243291383 2.1958334147930145 8.085747154899853 2 7.565611362457275 2 C 7.045475570014698 2 6.600207932568745 2.1958334147930145 6.229808196462528 2.5875000953674316 C 5.8594084603563115 2.9791667759418488 5.6742085218429565 3.449999988079071 5.6742085218429565 4 C 5.6742085218429565 4.550000011920929 5.8594084603563115 5.020833224058151 6.229808196462528 5.412499904632568 C 6.600207932568745 5.8041665852069855 7.045475570014698 6 7.565611362457275 6 Z" fill="rgb(28.000000230968,27.000000290572643,31.000000052154064)"/>
        </svg>