<svg width="44" height="25" viewBox="0 0 44 25" fill="none" xmlns="http://www.w3.org/2000/svg">
<g clip-path="url(#clip0_320_1675)">
<rect width="44" height="25" rx="3" fill="#767676"/>
<rect x="2" y="2" width="40" height="21" rx="1" fill="white"/>
<path d="M8 -7H38V2H8V-7Z" fill="#767676"/>
<circle cx="8.5" cy="12.5" r="3.5" fill="#767676"/>
<circle cx="8.49935" cy="12.4993" r="2.33333" fill="white"/>
<circle cx="35.5" cy="12.5" r="3.5" fill="#767676"/>
<circle cx="35.4993" cy="12.4993" r="2.33333" fill="white"/>
<path fill-rule="evenodd" clip-rule="evenodd" d="M23 2H28V-1H17V2L23 2Z" fill="#767676"/>
<path d="M22 -3L22 27" stroke="#767676" stroke-dasharray="2 2"/>
<path fill-rule="evenodd" clip-rule="evenodd" d="M18 1.5C18 1.33024 18.0121 1.1633 18.0354 1H19.2204C19.1852 1.16108 19.1667 1.32838 19.1667 1.5C19.1667 2.78866 20.2113 3.83333 21.5 3.83333C21.6716 3.83333 21.8389 3.8148 22 3.77964V4.96456C21.8367 4.98791 21.6698 5 21.5 5C19.567 5 18 3.433 18 1.5Z" fill="#767676"/>
<path fill-rule="evenodd" clip-rule="evenodd" d="M22.5 5C22.3302 5 22.1633 4.98791 22 4.96456V3.77964C22.1611 3.8148 22.3284 3.83333 22.5 3.83333C23.7887 3.83333 24.8333 2.78866 24.8333 1.5C24.8333 1.32838 24.8148 1.16108 24.7796 1H25.9646C25.9879 1.1633 26 1.33024 26 1.5C26 3.433 24.433 5 22.5 5Z" fill="#767676"/>
<path fill-rule="evenodd" clip-rule="evenodd" d="M26 23.5C26 23.6698 25.9879 23.8367 25.9646 24H24.7796C24.8148 23.8389 24.8333 23.6716 24.8333 23.5C24.8333 22.2113 23.7887 21.1667 22.5 21.1667C22.3284 21.1667 22.1611 21.1852 22 21.2204V20.0354C22.1633 20.0121 22.3302 20 22.5 20C24.433 20 26 21.567 26 23.5Z" fill="#767676"/>
<path fill-rule="evenodd" clip-rule="evenodd" d="M21.5 20C21.6698 20 21.8367 20.0121 22 20.0354V21.2204C21.8389 21.1852 21.6716 21.1667 21.5 21.1667C20.2113 21.1667 19.1667 22.2113 19.1667 23.5C19.1667 23.6716 19.1852 23.8389 19.2204 24H18.0354C18.0121 23.8367 18 23.6698 18 23.5C18 21.567 19.567 20 21.5 20Z" fill="#767676"/>
</g>
<defs>
<clipPath id="clip0_320_1675">
<rect width="44" height="25" rx="3" fill="white"/>
</clipPath>
</defs>
</svg>
